<svg version="1.1" xmlns="http://www.w3.org/2000/svg" xmlns:xlink="http://www.w3.org/1999/xlink"
	 width="128" viewBox="0 0 1024 1024" xml:space="preserve">
<rect width="1024" height="1024" rx="128" ry="128" fill="#ffffff"/>
<g transform="translate(512,512) scale(1.5) translate(-512,-512) translate(0, 20)">
	<path fill="#000000" opacity="1.000000" stroke="none" 
		d="
	M401.696045,325.513855 
		C422.090851,317.698090 442.224609,318.144379 462.042236,325.657501 
		C482.677124,333.480438 493.022949,349.814819 497.249512,370.741089 
		C499.679810,382.773621 499.018127,394.930908 499.031250,407.068817 
		C499.075928,448.389038 499.140381,489.709259 499.164825,531.029480 
		C499.166199,533.347717 499.127411,535.717224 498.667206,537.973145 
		C497.832306,542.065613 495.206482,544.314209 490.912994,544.315552 
		C475.917633,544.320374 460.921783,544.376648 445.927155,544.268738 
		C439.955811,544.225769 437.677338,541.549316 437.673035,534.915222 
		C437.649567,498.926300 437.650970,462.937408 437.679169,426.948486 
		C437.685852,418.453461 437.517578,409.984253 436.735596,401.506226 
		C435.307922,386.027863 427.337555,375.444489 414.121979,371.845856 
		C392.205780,365.878113 364.122925,381.056610 364.265320,409.739319 
		C364.469604,450.892151 364.290253,492.046936 364.276764,533.200867 
		C364.273956,541.823730 361.881805,544.298462 353.431213,544.308472 
		C340.101990,544.324341 326.772675,544.337036 313.443542,544.300598 
		C305.326752,544.278442 302.707275,541.641541 302.704773,533.485352 
		C302.684296,466.672607 302.678162,399.859863 302.678558,333.047119 
		C302.678619,325.906097 304.813019,323.685455 311.781097,323.666779 
		C325.276855,323.630554 338.772858,323.626556 352.268524,323.677856 
		C358.152557,323.700226 360.555389,325.734650 360.911560,331.608368 
		C361.284210,337.753693 361.096252,343.931610 361.228058,350.093719 
		C361.269989,352.055695 361.022308,354.464447 363.432983,355.174316 
		C365.635406,355.822845 366.509186,353.626526 367.625153,352.270050 
		C376.935425,340.953796 387.275299,330.952942 401.696045,325.513855 
	z"/>
	<path fill="#000000" opacity="1.000000" stroke="none" 
		d="
	M627.288513,549.063354 
		C615.069397,547.914734 603.363037,546.612732 592.095764,542.709900 
		C558.504028,531.074280 537.199768,507.731995 527.674744,473.864441 
		C519.106445,443.398956 519.797058,412.962219 531.693481,383.359772 
		C544.631409,351.165649 568.604675,331.536530 602.207520,323.594482 
		C629.496582,317.144653 656.210205,319.269226 681.593384,331.215668 
		C712.738586,345.873932 729.665649,371.621918 736.341248,404.751129 
		C741.477478,430.240845 740.555542,455.591278 732.066284,480.103363 
		C720.190552,514.393250 696.121582,536.128479 660.872986,545.284485 
		C650.006409,548.107178 638.909668,548.853210 627.288513,549.063354 
	M631.450745,364.283295 
		C628.799194,364.455170 626.097351,364.358246 623.504211,364.842834 
		C607.302551,367.870605 597.517944,378.009003 592.333679,393.216248 
		C586.907227,409.133667 586.902832,425.595642 587.272522,442.103729 
		C587.587280,456.161316 589.091492,469.971344 595.314087,482.879486 
		C602.493286,497.771851 614.783813,505.383636 630.810608,505.335968 
		C646.704346,505.288696 660.217529,498.655731 667.803467,480.572784 
		C672.776733,468.717743 674.518616,456.268097 674.757935,443.537598 
		C675.055420,427.716583 675.240662,411.919434 670.688110,396.494171 
		C664.734924,376.323090 651.012939,364.700928 631.450745,364.283295 
	z"/>
	<path fill="#ff6633" opacity="1.000000" stroke="none" 
		d="
	M617.356750,636.174194 
		C653.285400,630.315552 687.257141,619.266907 720.655518,606.224365 
		C723.903687,604.955933 727.209045,603.614014 730.612488,603.019592 
		C734.753296,602.296265 739.156250,602.228821 741.674438,606.645569 
		C743.711182,610.217957 742.270508,616.052307 738.268433,619.242676 
		C733.982117,622.659668 729.448364,625.821594 724.771301,628.684326 
		C691.574890,649.002991 655.872375,663.426392 618.293396,673.246155 
		C586.493774,681.555664 554.198608,686.258118 521.274597,687.534424 
		C475.397369,689.312988 430.681763,683.119019 386.799316,670.235046 
		C348.866333,659.097900 313.029694,643.265137 280.242889,620.962219 
		C265.342041,610.826050 251.138306,599.804260 238.889404,586.469727 
		C237.428299,584.879089 236.022018,583.217957 234.765762,581.463928 
		C232.729050,578.620178 232.278290,575.392700 234.557007,572.666260 
		C237.044510,569.690002 240.492905,570.102661 243.718674,571.571899 
		C245.373230,572.325439 246.877350,573.419922 248.420837,574.405212 
		C292.845917,602.764526 341.300720,621.149841 392.496277,632.855225 
		C410.187531,636.900208 428.036560,640.129883 446.007599,642.336914 
		C460.351013,644.098572 474.792999,645.359924 489.290802,645.805725 
		C510.946075,646.471558 532.590881,646.186035 554.161804,644.536926 
		C575.209900,642.927673 596.173096,640.243835 617.356750,636.174194 
	z"/>
	<path fill="#ff6633" opacity="1.000000" stroke="none" 
		d="
	M779.164917,565.581299 
		C781.205994,566.007446 782.847107,566.309021 784.440430,566.774292 
		C790.582092,568.567566 792.492493,570.785767 792.276184,577.132446 
		C791.318237,605.232910 781.868042,630.099487 763.359924,651.365784 
		C759.765137,655.496277 756.185791,659.671631 751.821594,663.094543 
		C748.630432,665.597412 745.124451,666.957214 741.885925,664.174316 
		C738.627930,661.374695 740.079712,657.772766 742.088257,654.674194 
		C751.809998,639.676453 758.146912,623.357971 761.302002,605.784180 
		C761.331421,605.620544 761.384216,605.460999 761.412537,605.297241 
		C763.567444,592.842102 761.675781,590.243042 749.278503,588.380066 
		C730.703369,585.588745 712.488464,587.638550 694.483948,592.424011 
		C691.150757,593.309937 687.832214,593.486267 686.199341,590.061279 
		C684.467224,586.428040 685.953491,583.268921 689.415955,581.158020 
		C690.552368,580.465210 691.666138,579.731812 692.828552,579.085632 
		C705.455505,572.066711 718.981445,567.511230 733.129150,564.883972 
		C748.345337,562.058289 763.577820,562.525085 779.164917,565.581299 
	z"/>
</g>
</svg>